<mxfile host="app.diagrams.net" agent="Mozilla/5.0 (Macintosh; Intel Mac OS X 10.15; rv:135.0) Gecko/20100101 Firefox/135.0" version="26.0.14">
  <diagram name="Page-1" id="QwFGvh6LegOf4RHr-8Q6">
    <mxGraphModel dx="1360" dy="1029" grid="1" gridSize="10" guides="1" tooltips="1" connect="1" arrows="1" fold="1" page="1" pageScale="1" pageWidth="850" pageHeight="1100" math="0" shadow="0">
      <root>
        <mxCell id="0" />
        <mxCell id="1" parent="0" />
        <mxCell id="6zFtLZpkQJS2jWATd9JQ-4" style="edgeStyle=orthogonalEdgeStyle;rounded=0;orthogonalLoop=1;jettySize=auto;html=1;exitX=1;exitY=0.5;exitDx=0;exitDy=0;" edge="1" parent="1" source="6zFtLZpkQJS2jWATd9JQ-1" target="6zFtLZpkQJS2jWATd9JQ-3">
          <mxGeometry relative="1" as="geometry" />
        </mxCell>
        <mxCell id="6zFtLZpkQJS2jWATd9JQ-7" style="edgeStyle=orthogonalEdgeStyle;rounded=0;orthogonalLoop=1;jettySize=auto;html=1;exitX=0.5;exitY=1;exitDx=0;exitDy=0;entryX=0.5;entryY=0;entryDx=0;entryDy=0;entryPerimeter=0;startArrow=classic;startFill=1;" edge="1" parent="1" source="6zFtLZpkQJS2jWATd9JQ-1" target="6zFtLZpkQJS2jWATd9JQ-8">
          <mxGeometry relative="1" as="geometry">
            <mxPoint x="440.33333333333326" y="340.0000000000002" as="targetPoint" />
          </mxGeometry>
        </mxCell>
        <mxCell id="6zFtLZpkQJS2jWATd9JQ-1" value="rag-service" style="rounded=1;whiteSpace=wrap;html=1;" vertex="1" parent="1">
          <mxGeometry x="360" y="140" width="160" height="100" as="geometry" />
        </mxCell>
        <mxCell id="6zFtLZpkQJS2jWATd9JQ-3" value="weaviate" style="shape=cylinder3;whiteSpace=wrap;html=1;boundedLbl=1;backgroundOutline=1;size=15;" vertex="1" parent="1">
          <mxGeometry x="640" y="140" width="110" height="100" as="geometry" />
        </mxCell>
        <mxCell id="6zFtLZpkQJS2jWATd9JQ-5" style="edgeStyle=orthogonalEdgeStyle;rounded=0;orthogonalLoop=1;jettySize=auto;html=1;" edge="1" parent="1">
          <mxGeometry relative="1" as="geometry">
            <mxPoint x="150" y="189" as="sourcePoint" />
            <mxPoint x="360" y="189.44" as="targetPoint" />
          </mxGeometry>
        </mxCell>
        <mxCell id="6zFtLZpkQJS2jWATd9JQ-9" value="API" style="edgeLabel;html=1;align=center;verticalAlign=middle;resizable=0;points=[];" vertex="1" connectable="0" parent="6zFtLZpkQJS2jWATd9JQ-5">
          <mxGeometry x="0.1233" y="-1" relative="1" as="geometry">
            <mxPoint as="offset" />
          </mxGeometry>
        </mxCell>
        <mxCell id="6zFtLZpkQJS2jWATd9JQ-8" value="embedding&lt;br&gt;generate" style="shape=cylinder3;whiteSpace=wrap;html=1;boundedLbl=1;backgroundOutline=1;size=15;" vertex="1" parent="1">
          <mxGeometry x="387.5" y="320" width="105" height="100" as="geometry" />
        </mxCell>
      </root>
    </mxGraphModel>
  </diagram>
</mxfile>
